#!OML:ASF G:\JayActor3\Patient Classification 1\Patient 1\Session 5\male.ASF
:FULLY-SPECIFIED
:DEGREES
1622
root -58.3509 16.9602 -4.33889 -369.761 82.9003 -371.203
lowerback -1.62036 0.406307 0.442588
upperback 1.30553 0.570761 -1.4925
thorax 2.26678 0.308699 -1.75918
lowerneck -9.95416 1.09562 4.09702
upperneck 16.7341 0.938816 0.112016
head 6.76786 0.782826 -0.551732
rclavicle -1.1778e-014 -1.11319e-014
rhumerus -32.1804 -5.7396 -88.0623
rradius 27.9076
rwrist 1.49245
rhand -18.4423 -6.45608
rfingers 7.12502
rthumb 7.8435 -36.2906
lclavicle -1.1778e-014 -1.11319e-014
lhumerus -30.3569 5.72727 82.8795
lradius 26.1384
lwrist 15.9931
lhand -16.6099 17.0801
lfingers 7.12502
lthumb 9.61171 46.8408
rfemur -2.74102 7.4275 24.2862
rtibia 40.841
rfoot -23.7615 -7.73807
rtoes 1.10918
lfemur -6.37539 8.21213 -21.0899
ltibia 21.3594
lfoot -18.4692 -2.54618
ltoes 10.1738
1623
root -58.3954 16.964 -4.31852 -369.126 83.0093 -370.593
lowerback -1.63753 0.400666 0.378923
upperback 1.31536 0.566002 -1.51682
thorax 2.286 0.305827 -1.74847
lowerneck -9.98045 1.09726 4.14968
upperneck 16.7149 0.942302 0.0416269
head 6.76692 0.781137 -0.582682
rclavicle 6.95746e-015 -1.03368e-014
rhumerus -32.1313 -5.73898 -88.0775
rradius 27.8963
rwrist 1.4985
rhand -18.4582 -6.44804
rfingers 7.12502
rthumb 7.82808 -36.2831
lclavicle 6.95746e-015 -1.03368e-014
lhumerus -30.2912 5.64389 82.9167
lradius 26.3483
lwrist 16.0629
lhand -16.6171 17.164
lfingers 7.12502
lthumb 9.6048 46.9251
rfemur -2.3983 7.35738 24.3121
rtibia 39.9778
rfoot -24.3471 -7.82445
rtoes 1.90329
lfemur -6.61069 8.15128 -21.134
ltibia 21.4108
lfoot -18.2577 -2.53507
ltoes 10.0604
1624
root -58.4407 16.9677 -4.29759 -368.558 83.1353 -370.046
lowerback -1.62792 0.39063 0.321593
upperback 1.31523 0.554932 -1.5401
thorax 2.27978 0.299698 -1.74067
lowerneck -9.96464 1.07911 4.17563
upperneck 16.6925 0.92285 -0.010654
head 6.75679 0.768498 -0.605601
rclavicle 8.24956e-015 -1.43125e-014
rhumerus -32.1054 -5.73071 -88.0954
rradius 27.8923
rwrist 1.49487
rhand -18.4786 -6.44741
rfingers 7.12502
rthumb 7.8084 -36.2832
lclavicle 8.24956e-015 -1.43125e-014
lhumerus -30.2338 5.54794 82.9513
lradius 26.5443
lwrist 16.1326
lhand -16.6315 17.2422
lfingers 7.12502
lthumb 9.59093 47.0039
rfemur -2.06428 7.27186 24.3432
rtibia 39.1273
rfoot -24.8952 -7.92545
rtoes 2.65306
lfemur -6.8473 8.07678 -21.1698
ltibia 21.4642
lfoot -18.0407 -2.51922
ltoes 9.95099
1625
root -58.4865 16.9713 -4.27655 -368.006 83.2568 -369.512
lowerback -1.60426 0.387166 0.277541
upperback 1.30653 0.552179 -1.56835
thorax 2.25731 0.297864 -1.74523
lowerneck -9.91994 1.0465 4.19591
upperneck 16.668 0.884422 -0.0506456
head 6.74045 0.747612 -0.625392
rclavicle 0 6.36111e-015
rhumerus -32.1015 -5.73094 -88.1157
rradius 27.8935
rwrist 1.48594
rhand -18.5021 -6.45396
rfingers 7.12502
rthumb 7.78571 -36.2906
lclavicle 0 6.36111e-015
lhumerus -30.1851 5.42951 82.9814
lradius 26.7265
lwrist 16.2
lhand -16.6519 17.3784
lfingers 7.12502
lthumb 9.57123 47.141
rfemur -1.73879 7.1997 24.3745
rtibia 38.2921
rfoot -25.4084 -8.02313
rtoes 3.3693
lfemur -7.08848 7.99247 -21.2012
ltibia 21.5271
lfoot -17.823 -2.48696
ltoes 9.82363
1626
root -58.5331 16.9744 -4.25512 -367.533 83.3923 -369.054
lowerback -1.54503 0.377821 0.243409
upperback 1.28249 0.54073 -1.5944
thorax 2.19886 0.29156 -1.75364
lowerneck -9.94356 1.04546 4.28031
upperneck 16.7073 0.884309 -0.144449
head 6.75798 0.74573 -0.669322
rclavicle 1.66482e-014 -1.11319e-014
rhumerus -32.1262 -5.7169 -88.1391
rradius 27.9033
rwrist 1.47293
rhand -18.5219 -6.47699
rfingers 7.12502
rthumb 7.76666 -36.3144
lclavicle 1.66482e-014 -1.11319e-014
lhumerus -30.1497 5.3057 83.0063
lradius 26.8873
lwrist 16.2749
lhand -16.6806 17.4557
lfingers 7.12502
lthumb 9.5435 47.2196
rfemur -1.41999 7.12495 24.4124
rtibia 37.477
rfoot -25.8853 -8.11299
rtoes 4.05981
lfemur -7.33326 7.90116 -21.2213
ltibia 21.5946
lfoot -17.6035 -2.46124
ltoes 9.68844
1627
root -58.5797 16.9771 -4.23331 -367.082 83.5293 -368.616
lowerback -1.48433 0.371008 0.213911
upperback 1.2597 0.532475 -1.62038
thorax 2.14104 0.286949 -1.76445
lowerneck -9.95087 1.02672 4.33434
upperneck 16.7473 0.861376 -0.209998
head 6.77208 0.733529 -0.701243
rclavicle 1.98785e-015 -1.27222e-014
rhumerus -32.1545 -5.70978 -88.1609
rradius 27.9118
rwrist 1.46422
rhand -18.5321 -6.48925
rfingers 7.12502
rthumb 7.75677 -36.327
lclavicle 1.98785e-015 -1.27222e-014
lhumerus -30.1098 5.17876 83.0285
lradius 27.0356
lwrist 16.345
lhand -16.7098 17.4481
lfingers 7.12502
lthumb 9.51533 47.2133
rfemur -1.11016 7.06187 24.4528
rtibia 36.6872
rfoot -26.3354 -8.18206
rtoes 4.76129
lfemur -7.57592 7.80212 -21.2344
ltibia 21.6594
lfoot -17.3753 -2.43316
ltoes 9.54883
1628
root -58.6263 16.98 -4.21117 -366.694 83.664 -368.24
lowerback -1.43633 0.365696 0.186637
upperback 1.24851 0.526178 -1.63879
thorax 2.10229 0.283429 -1.76856
lowerneck -10.041 1.05858 4.45195
upperneck 16.8153 0.898696 -0.315283
head 6.81178 0.751008 -0.750829
rclavicle -1.18277e-014 5.56597e-015
rhumerus -32.1697 -5.69035 -88.1814
rradius 27.9219
rwrist 1.44518
rhand -18.5219 -6.45414
rfingers 7.12502
rthumb 7.76664 -36.2915
lclavicle -1.18277e-014 5.56597e-015
lhumerus -30.0677 5.08673 83.0475
lradius 27.1913
lwrist 16.3907
lhand -16.7255 17.3444
lfingers 7.12502
lthumb 9.50024 47.1103
rfemur -0.817898 7.01572 24.5016
rtibia 35.9262
rfoot -26.7382 -8.25385
rtoes 5.47311
lfemur -7.81328 7.69042 -21.2344
ltibia 21.7168
lfoot -17.1442 -2.4025
ltoes 9.40796
1629
root -58.6732 16.9834 -4.18868 -366.334 83.807 -367.894
lowerback -1.41042 0.353865 0.153881
upperback 1.26359 0.511675 -1.64799
thorax 2.10254 0.275975 -1.76021
lowerneck -10.154 1.08247 4.514
upperneck 16.8787 0.925867 -0.381372
head 6.85333 0.763096 -0.779475
rclavicle -1.44119e-014 8.74653e-015
rhumerus -32.1325 -5.65053 -88.2058
rradius 27.9243
rwrist 1.421
rhand -18.5022 -6.40459
rfingers 7.12502
rthumb 7.78561 -36.2412
lclavicle -1.44119e-014 8.74653e-015
lhumerus -29.9757 5.05704 83.0574
lradius 27.3362
lwrist 16.3709
lhand -16.6917 17.3249
lfingers 7.12502
lthumb 9.53283 47.0893
rfemur -0.55461 6.97468 24.5508
rtibia 35.198
rfoot -27.0857 -8.33484
rtoes 6.1831
lfemur -8.04927 7.57038 -21.2285
ltibia 21.7618
lfoot -16.899 -2.37393
ltoes 9.2652
1630
root -58.7201 16.9871 -4.16577 -366.028 83.9615 -367.601
lowerback -1.39743 0.342049 0.122393
upperback 1.28456 0.497258 -1.65377
thorax 2.11608 0.268629 -1.74897
lowerneck -10.1912 1.07637 4.49933
upperneck 16.8921 0.916525 -0.373568
head 6.8638 0.758477 -0.77522
rclavicle -8.34896e-015 6.36111e-015
rhumerus -32.0927 -5.61146 -88.2303
rradius 27.9267
rwrist 1.39005
rhand -18.4779 -6.33758
rfingers 7.12502
rthumb 7.80906 -36.1734
lclavicle -8.34896e-015 6.36111e-015
lhumerus -29.8844 5.02805 83.0695
lradius 27.4799
lwrist 16.3566
lhand -16.6603 17.2893
lfingers 7.12502
lthumb 9.56315 47.0523
rfemur -0.312612 6.93528 24.6078
rtibia 34.5038
rfoot -27.3935 -8.43486
rtoes 6.87541
lfemur -8.28383 7.43445 -21.2152
ltibia 21.7992
lfoot -16.6429 -2.34055
ltoes 9.11369
1631
root -58.7669 16.9908 -4.14301 -365.77 84.1034 -367.354
lowerback -1.39208 0.333036 0.101336
upperback 1.31799 0.486517 -1.65585
thorax 2.14692 0.263373 -1.7396
lowerneck -10.1838 1.05571 4.39554
upperneck 16.8542 0.889025 -0.276443
head 6.84863 0.746262 -0.729297
rclavicle -5.2181e-015 -1.59028e-014
rhumerus -32.0275 -5.56238 -88.2587
rradius 27.9204
rwrist 1.35732
rhand -18.4518 -6.26556
rfingers 7.12502
rthumb 7.83427 -36.1004
lclavicle -5.2181e-015 -1.59028e-014
lhumerus -29.7764 5.01924 83.0778
lradius 27.6161
lwrist 16.3337
lhand -16.631 17.2795
lfingers 7.12502
lthumb 9.59135 47.0411
rfemur -0.0932083 6.90592 24.6689
rtibia 33.8444
rfoot -27.6591 -8.53964
rtoes 7.54496
lfemur -8.52252 7.2864 -21.1956
ltibia 21.8454
lfoot -16.3801 -2.27938
ltoes 8.92553
